<svg height="200" viewBox="0 0 1027 1024" width="200.585938" xmlns="http://www.w3.org/2000/svg"><path d="m793.16261 1017.225993h-561.884952c-124.836551 0-226.138545-101.300097-226.138545-226.138545v-561.655393c0-124.836551 101.301994-226.138545 226.138545-226.138545h561.655393c124.836551 0 226.138545 101.301994 226.138545 226.138545v561.655393c0 124.838448-101.070537 226.138545-225.908986 226.138545z" fill="#ff8155" opacity=".42"/><path d="m1017.455196 812.777943c.692472-7.152381 1.155385-14.304761 1.155384-21.690495v-176.98822l-608.498742-608.7302 7.846749-2.075518h-187.141944c-8.076309 0-16.152618.462913-24.228927 1.384944l615.188211 606.189871-400.588334 406.357668h200.063659l297.440381-301.826669z" fill="#e8e8e8"/><path d="m1018.61058 614.099228v-384.667173c0-124.836551-101.301994-226.138545-226.140442-226.138545h-374.511551l-7.846749 2.077416z" fill="#ff8155"/><path d="m1018.61058 614.099228v-384.667173c0-124.836551-101.301994-226.138545-226.140442-226.138545h-374.511551l-7.846749 2.077416z" fill="#00c562"/><path d="m206.587716 4.678454c-113.531236 11.999683-201.909618 108.222918-201.909618 224.753601v561.655393c0 124.838448 101.300097 226.138545 226.138545 226.138545h190.37095l400.358775-406.357668-614.958652-606.187974z" fill="#3776ff"/><path d="m1017.455196 812.777943-98.761666-97.378619-297.44038 301.826669h171.216988c117.454611 0 214.140758-89.763326 224.986955-204.44805z" fill="#ff8155"/><path d="m1017.455196 812.777943-98.761666-97.378619-297.44038 301.826669h171.216988c117.454611 0 214.140758-89.763326 224.986955-204.44805z" fill="#c1c1c1"/><path d="m617.79079 571.179252c29.535348-32.075676 54.227187-68.765302 73.379252-109.378302l130.837341-278.28642c5.539775-11.768227-9.461253-26.074886-20.998023-20.305552l-273.442911 140.757713a436.183285 436.183285 0 0 0 -106.839871 77.302626c40.613001 35.534241 80.072514 70.84082 101.763009 91.609285 21.459039 21.22948 57.919106 58.841137 95.301203 98.30065z" fill="#f94a13"/><path d="m522.258131 473.108161c-21.690495-20.766567-61.150009-56.073146-101.76301-91.609284-35.765698 35.306579-65.301045 77.073067-87.224894 123.684961l-130.835445 278.288316c-5.537878 11.768227 9.461253 26.074886 20.999921 20.307449l273.441014-140.761507c45.921319-23.766014 86.53432-54.688203 120.685514-91.838844-37.150641-39.459513-73.610708-77.07117-95.301203-98.071091z" fill="#fff"/></svg>